<?xml version="1.0" encoding="UTF-8"?>
<svg xmlns="http://www.w3.org/2000/svg" viewBox="0 0 100 100" width="100" height="100">
    <rect width="100" height="100" fill="#000"/>
    <!-- Stars -->
    <circle cx="20" cy="20" r="2" fill="#fff"/>
    <circle cx="80" cy="30" r="1.5" fill="#fff"/>
    <circle cx="40" cy="70" r="1" fill="#fff"/>
    <circle cx="70" cy="80" r="2" fill="#fff"/>
    <circle cx="90" cy="60" r="1.5" fill="#fff"/>
    <!-- Xenon 2 Ship (simplified) -->
    <g transform="translate(50,55) scale(0.7)">
        <!-- Main body -->
        <polygon points="0,-28 10,-18 7,18 0,28 -7,18 -10,-18" fill="#b0c4de" stroke="#fff" stroke-width="1"/>
        <!-- Cockpit -->
        <ellipse cx="0" cy="-10" rx="5" ry="8" fill="#4682b4" stroke="#fff" stroke-width="1"/>
        <!-- Red highlight on nose -->
        <ellipse cx="0" cy="-25" rx="2" ry="3" fill="#ff3333"/>
        <!-- Left engine pod -->
        <rect x="-18" y="10" width="7" height="14" rx="2" fill="#b0c4de" stroke="#fff" stroke-width="1"/>
        <ellipse cx="-14.5" cy="25" rx="3" ry="2" fill="#ff9900"/>
        <!-- Right engine pod -->
        <rect x="11" y="10" width="7" height="14" rx="2" fill="#b0c4de" stroke="#fff" stroke-width="1"/>
        <ellipse cx="14.5" cy="25" rx="3" ry="2" fill="#ff9900"/>
        <!-- Red stripes on engines -->
        <rect x="-18" y="16" width="7" height="2" fill="#ff3333"/>
        <rect x="11" y="16" width="7" height="2" fill="#ff3333"/>
    </g>
    <!-- Asteroid -->
    <g>
        <circle cx="75" cy="25" r="8" fill="none" stroke="#ff0000" stroke-width="2" stroke-dasharray="4,4"/>
    </g>
</svg> 